<?xml version="1.0" encoding="UTF-8"?>
<svg id="Layer_2" data-name="Layer 2" xmlns="http://www.w3.org/2000/svg" xmlns:xlink="http://www.w3.org/1999/xlink" viewBox="0 0 261.17 320">
  <defs>
    <style>
      .cls-1 {
        fill: #403000;
      }

      .cls-1, .cls-2, .cls-3, .cls-4, .cls-5, .cls-6, .cls-7, .cls-8, .cls-9, .cls-10, .cls-11, .cls-12 {
        stroke-width: 0px;
      }

      .cls-2 {
        fill: #272525;
      }

      .cls-3 {
        fill: #76c4f2;
      }

      .cls-4, .cls-13, .cls-14, .cls-15, .cls-16 {
        fill: none;
      }

      .cls-13, .cls-14 {
        stroke: #94ceea;
      }

      .cls-13, .cls-14, .cls-15, .cls-16 {
        stroke-miterlimit: 10;
      }

      .cls-13, .cls-16 {
        stroke-width: 27.67px;
      }

      .cls-17 {
        clip-path: url(#clippath-1);
      }

      .cls-5 {
        fill: #60491d;
      }

      .cls-6 {
        fill: #335467;
      }

      .cls-7 {
        fill: #fff;
      }

      .cls-14, .cls-15 {
        stroke-width: .69px;
      }

      .cls-18 {
        clip-path: url(#clippath);
      }

      .cls-8 {
        fill: #94ceea;
      }

      .cls-15 {
        stroke: #fff;
      }

      .cls-9 {
        fill: #5d5e60;
      }

      .cls-10 {
        fill: #404041;
      }

      .cls-16 {
        stroke: #335467;
      }

      .cls-11 {
        fill: #7b1f22;
      }

      .cls-12 {
        fill: #f0d2a8;
      }
    </style>
    <clipPath id="clippath">
      <rect class="cls-4" width="261.17" height="320"/>
    </clipPath>
    <clipPath id="clippath-1">
      <rect class="cls-4" width="261.17" height="320"/>
    </clipPath>
  </defs>
  <g id="Layer_1-2" data-name="Layer 1">
    <polygon class="cls-1" points="220.92 0 210.28 18.2 189.01 2.98 198.4 27.39 230.86 57.08 253.92 62.36 236.31 42.01 249.81 26.43 227.15 24.71 220.92 0"/>
    <rect class="cls-5" x="51.37" y="131.87" width="36.77" height="138.66"/>
    <rect class="cls-6" x="206.88" y="242.57" width="21.4" height="43.39"/>
    <g class="cls-18">
      <path class="cls-1" d="m126.75,293.12H12.91c-.05-4.22-.11-8.45-.16-12.67,5.25-.88,12.17-2.46,19.69-5.49,8.59-3.46,14.86-7.54,19-10.7h36.77c3.89,3.24,10.1,7.66,18.96,11.33,7.52,3.12,14.46,4.67,19.58,5.49v12.04Z"/>
      <path class="cls-1" d="m88.4,149.06c-27.23.16-54.45.31-81.68.47v-14.72c4.43.32,12.45.18,21.57-4.34,9.44-4.68,15.53-11.8,18.59-15.92,13.93-.05,27.86-.11,41.78-.16-.09,11.56-.18,23.12-.27,34.68"/>
      <path class="cls-12" d="m230.93,67.48c-4.24,18.08-22.21,29.33-40.14,25.12-17.92-4.21-29.01-22.27-24.77-40.35,4.24-18.08,22.21-29.33,40.14-25.12,17.92,4.21,29.01,22.27,24.77,40.35"/>
      <path class="cls-2" d="m90.11,95.17l-3.79-2.21-13.5,23.59c-.69,1.14-.24,2.61.86,3.16,1.01.51,2.33.11,2.93-.95,4.5-7.86,9-15.73,13.5-23.59"/>
      <path class="cls-9" d="m93.11,95.15c-1.7,3.51-5.07,5.38-7.52,4.17-2.45-1.21-3.06-5.03-1.37-8.54,1.7-3.51,5.06-5.38,7.52-4.17,2.45,1.21,3.07,5.03,1.37,8.54"/>
      <path class="cls-13" d="m145.88,182.55c0-39.96,22.4-72.35,50.04-72.35s50.04,32.39,50.04,72.35"/>
      <path class="cls-16" d="m145.88,181.59c0,39.96,22.4,72.36,50.04,72.36s50.04-32.39,50.04-72.36"/>
      <path class="cls-11" d="m204.22,191.8c-3.37,5.43-6.74,10.86-10.11,16.29-3.99-5.43-7.98-10.86-11.96-16.29v-51.97c3.74-4.26,7.48-8.52,11.22-12.77,3.62,4.26,7.24,8.52,10.85,12.77v51.97Z"/>
      <path class="cls-11" d="m196.47,130.33h-6.57c-2.81,0-5.09-2.28-5.09-5.09v-6.57c0-2.81,2.28-5.09,5.09-5.09h6.57c2.81,0,5.09,2.28,5.09,5.09v6.57c0,2.81-2.28,5.09-5.09,5.09"/>
      <rect class="cls-6" x="152.14" y="240.41" width="21.4" height="43.39"/>
      <path class="cls-2" d="m228.53,293.12h-47.17c1.73-3.1,8.03-13.48,21.26-18.76,11.86-4.74,22.29-2.59,25.91-1.68v20.44Z"/>
      <path class="cls-10" d="m173.54,293.12h-47.17c1.73-3.1,8.03-13.48,21.26-18.76,11.86-4.74,22.29-2.59,25.91-1.68v20.44Z"/>
      <polygon class="cls-8" points="159.85 117.29 149.43 130.33 115.94 103.11 126.36 90.06 159.85 117.29"/>
      <polygon class="cls-14" points="159.85 117.29 149.43 130.33 115.94 103.11 126.36 90.06 159.85 117.29"/>
      <path class="cls-8" d="m132.05,99.73l-16.35,2.93-7.53-42.72c-1.07-4.84,2.2-9.57,6.85-10.28,4.49-.68,8.88,2.6,9.5,7.34,2.51,14.24,5.02,28.48,7.53,42.72"/>
      <path class="cls-14" d="m132.05,99.73l-16.35,2.93-7.53-42.72c-1.07-4.84,2.2-9.57,6.85-10.28,4.49-.68,8.88,2.6,9.5,7.34,2.51,14.24,5.02,28.48,7.53,42.72Z"/>
      <path class="cls-3" d="m235.47,135.45c3.62.32,6.72,2.77,7.88,6.22,1.12,3.35.22,7.08-2.32,9.56-13.51,4.84-27.02,9.69-40.53,14.53l-5.56-15.78,40.53-14.53Z"/>
      <path class="cls-3" d="m206.09,150.15l-6.08,15.59-40.02-15.89c-4.64-1.61-6.93-6.9-5.09-11.26,1.77-4.22,6.85-6.27,11.18-4.32,13.34,5.3,26.68,10.59,40.02,15.89"/>
      <path class="cls-2" d="m203.68,53.65c-.57,2.42-2.97,3.92-5.37,3.36-2.4-.56-3.88-2.98-3.31-5.4.57-2.42,2.97-3.92,5.37-3.36,2.4.56,3.88,2.98,3.31,5.4"/>
    </g>
    <g>
      <path class="cls-2" d="m13.96,301.47h1.38v9.56h4.58v1.16h-5.97v-10.73Z"/>
      <path class="cls-2" d="m22.98,302.33c.02.48-.33.86-.89.86-.49,0-.84-.38-.84-.86s.37-.88.88-.88.86.38.86.88Zm-1.56,9.87v-7.7h1.4v7.7h-1.4Z"/>
      <path class="cls-2" d="m25.14,300.9h1.4v11.3h-1.4v-11.3Z"/>
      <path class="cls-2" d="m28.9,300.9h1.4v11.3h-1.4v-11.3Z"/>
      <path class="cls-2" d="m33.43,308.6c.03,1.89,1.24,2.67,2.64,2.67,1,0,1.61-.17,2.13-.4l.24,1c-.49.22-1.34.48-2.56.48-2.37,0-3.79-1.56-3.79-3.88s1.37-4.15,3.61-4.15c2.51,0,3.18,2.21,3.18,3.63,0,.29-.03.51-.05.65h-5.41Zm4.11-1c.02-.89-.37-2.28-1.94-2.28-1.42,0-2.04,1.3-2.15,2.28h4.09Z"/>
      <path class="cls-2" d="m40.44,310.77c.41.27,1.15.56,1.85.56,1.02,0,1.5-.51,1.5-1.15,0-.67-.4-1.03-1.43-1.42-1.38-.49-2.04-1.26-2.04-2.18,0-1.24,1-2.26,2.66-2.26.78,0,1.46.22,1.89.48l-.35,1.02c-.3-.19-.86-.45-1.58-.45-.83,0-1.29.48-1.29,1.05,0,.64.46.92,1.46,1.31,1.34.51,2.02,1.18,2.02,2.32,0,1.35-1.05,2.31-2.88,2.31-.84,0-1.62-.21-2.16-.53l.35-1.07Z"/>
      <path class="cls-2" d="m48.61,302.28v2.21h2.01v1.07h-2.01v4.15c0,.95.27,1.5,1.05,1.5.37,0,.64-.05.81-.1l.06,1.05c-.27.11-.7.19-1.24.19-.65,0-1.18-.21-1.51-.59-.4-.41-.54-1.1-.54-2v-4.2h-1.19v-1.07h1.19v-1.85l1.37-.37Z"/>
      <path class="cls-2" d="m59.28,308.28c0,2.85-1.97,4.09-3.84,4.09-2.08,0-3.69-1.53-3.69-3.96,0-2.58,1.69-4.09,3.82-4.09s3.71,1.61,3.71,3.96Zm-6.11.08c0,1.69.97,2.96,2.34,2.96s2.34-1.26,2.34-2.99c0-1.3-.65-2.96-2.31-2.96s-2.37,1.53-2.37,2.99Z"/>
      <path class="cls-2" d="m61.04,306.9c0-.91-.02-1.69-.06-2.4h1.23l.05,1.51h.06c.35-1.04,1.19-1.69,2.13-1.69.16,0,.27.02.4.05v1.32c-.14-.03-.29-.05-.48-.05-.99,0-1.69.75-1.88,1.8-.03.19-.06.41-.06.65v4.11h-1.38v-5.3Z"/>
      <path class="cls-2" d="m68.5,302.28v2.21h2.01v1.07h-2.01v4.15c0,.95.27,1.5,1.05,1.5.37,0,.64-.05.81-.1l.06,1.05c-.27.11-.7.19-1.24.19-.65,0-1.18-.21-1.51-.59-.4-.41-.54-1.1-.54-2v-4.2h-1.19v-1.07h1.19v-1.85l1.37-.37Z"/>
      <path class="cls-2" d="m73.64,302.33c.02.48-.33.86-.89.86-.49,0-.84-.38-.84-.86s.37-.88.88-.88.86.38.86.88Zm-1.56,9.87v-7.7h1.4v7.7h-1.4Z"/>
      <path class="cls-2" d="m75.81,306.58c0-.8-.02-1.45-.06-2.08h1.24l.08,1.27h.03c.38-.73,1.27-1.45,2.55-1.45,1.07,0,2.72.64,2.72,3.28v4.6h-1.4v-4.44c0-1.24-.46-2.28-1.78-2.28-.92,0-1.64.65-1.88,1.43-.06.18-.1.41-.1.65v4.63h-1.4v-5.62Z"/>
      <path class="cls-2" d="m91.27,304.5c-.03.56-.06,1.18-.06,2.12v4.47c0,1.77-.35,2.85-1.1,3.52-.75.7-1.83.92-2.8.92s-1.94-.22-2.56-.64l.35-1.07c.51.32,1.3.61,2.26.61,1.43,0,2.48-.75,2.48-2.69v-.86h-.03c-.43.72-1.26,1.29-2.45,1.29-1.91,0-3.28-1.62-3.28-3.76,0-2.61,1.7-4.09,3.47-4.09,1.34,0,2.07.7,2.4,1.34h.03l.06-1.16h1.23Zm-1.45,3.04c0-.24-.02-.45-.08-.64-.25-.81-.94-1.48-1.96-1.48-1.34,0-2.29,1.13-2.29,2.91,0,1.51.76,2.77,2.28,2.77.86,0,1.64-.54,1.94-1.43.08-.24.11-.51.11-.75v-1.38Z"/>
      <path class="cls-2" d="m94.31,308.6c.03,1.89,1.24,2.67,2.64,2.67,1,0,1.61-.17,2.13-.4l.24,1c-.49.22-1.34.48-2.56.48-2.37,0-3.79-1.56-3.79-3.88s1.37-4.15,3.61-4.15c2.51,0,3.18,2.21,3.18,3.63,0,.29-.03.51-.05.65h-5.41Zm4.11-1c.02-.89-.37-2.28-1.94-2.28-1.42,0-2.04,1.3-2.15,2.28h4.09Z"/>
      <path class="cls-2" d="m103.33,302.28v2.21h2.01v1.07h-2.01v4.15c0,.95.27,1.5,1.05,1.5.37,0,.64-.05.81-.1l.06,1.05c-.27.11-.7.19-1.24.19-.65,0-1.18-.21-1.51-.59-.4-.41-.54-1.1-.54-2v-4.2h-1.19v-1.07h1.19v-1.85l1.37-.37Z"/>
    </g>
    <g class="cls-17">
      <path class="cls-7" d="m196.7,73.46l-41.87-9.83c-.76-1.82-2.28-6.17-1.35-11.65,1.2-6.98,5.6-11.14,6.97-12.33,12.08,11.27,24.16,22.54,36.24,33.81"/>
      <path class="cls-15" d="m196.7,73.46l-41.87-9.83c-.76-1.82-2.28-6.17-1.35-11.65,1.2-6.98,5.6-11.14,6.97-12.33,12.08,11.27,24.16,22.54,36.24,33.81Z"/>
    </g>
    <g>
      <path class="cls-2" d="m114.03,311.4v-.82l1.05-1.02c2.53-2.4,3.67-3.68,3.68-5.17,0-1-.49-1.93-1.96-1.93-.9,0-1.64.46-2.1.84l-.43-.94c.68-.58,1.66-1,2.8-1,2.13,0,3.03,1.46,3.03,2.88,0,1.83-1.32,3.3-3.41,5.31l-.79.73v.03h4.44v1.11h-6.31Z"/>
      <path class="cls-2" d="m128.41,306.35c0,3.36-1.25,5.22-3.44,5.22-1.93,0-3.24-1.81-3.27-5.08,0-3.32,1.43-5.14,3.44-5.14s3.27,1.86,3.27,5Zm-5.37.15c0,2.57.79,4.03,2.01,4.03,1.37,0,2.02-1.6,2.02-4.12s-.62-4.03-2.01-4.03c-1.17,0-2.02,1.43-2.02,4.12Z"/>
      <path class="cls-2" d="m131.4,302.76h-.03l-1.72.93-.26-1.02,2.16-1.16h1.14v9.89h-1.29v-8.64Z"/>
      <path class="cls-2" d="m139.24,311.4v-2.69h-4.59v-.88l4.41-6.31h1.45v6.15h1.38v1.05h-1.38v2.69h-1.26Zm0-3.74v-3.3c0-.52.02-1.03.05-1.55h-.05c-.3.58-.55,1-.82,1.46l-2.42,3.36v.03h3.24Z"/>
      <path class="cls-2" d="m146.43,306.79v.99h-3.76v-.99h3.76Z"/>
      <path class="cls-2" d="m147.58,311.4v-.82l1.05-1.02c2.53-2.4,3.67-3.68,3.68-5.17,0-1-.49-1.93-1.96-1.93-.9,0-1.64.46-2.1.84l-.43-.94c.68-.58,1.66-1,2.8-1,2.13,0,3.03,1.46,3.03,2.88,0,1.83-1.32,3.3-3.41,5.31l-.79.73v.03h4.44v1.11h-6.31Z"/>
      <path class="cls-2" d="m161.96,306.35c0,3.36-1.25,5.22-3.44,5.22-1.93,0-3.24-1.81-3.27-5.08,0-3.32,1.43-5.14,3.44-5.14s3.27,1.86,3.27,5Zm-5.37.15c0,2.57.79,4.03,2.01,4.03,1.37,0,2.02-1.6,2.02-4.12s-.62-4.03-2.01-4.03c-1.17,0-2.02,1.43-2.02,4.12Z"/>
      <path class="cls-2" d="m163.19,311.4v-.82l1.05-1.02c2.53-2.4,3.67-3.68,3.68-5.17,0-1-.49-1.93-1.96-1.93-.9,0-1.64.46-2.1.84l-.43-.94c.68-.58,1.66-1,2.8-1,2.13,0,3.03,1.46,3.03,2.88,0,1.83-1.32,3.3-3.41,5.31l-.79.73v.03h4.44v1.11h-6.31Z"/>
      <path class="cls-2" d="m175.05,311.4v-2.69h-4.59v-.88l4.41-6.31h1.45v6.15h1.38v1.05h-1.38v2.69h-1.26Zm0-3.74v-3.3c0-.52.02-1.03.05-1.55h-.05c-.3.58-.55,1-.82,1.46l-2.42,3.36v.03h3.24Z"/>
    </g>
  </g>
</svg>