<?xml version="1.0" encoding="UTF-8"?>
<svg id="Layer_2" data-name="Layer 2" xmlns="http://www.w3.org/2000/svg" viewBox="0 0 107.23 107.74">
  <defs>
    <style>
      .cls-1 {
        stroke: #3e66b0;
      }

      .cls-1, .cls-2 {
        fill: none;
        stroke-miterlimit: 10;
      }

      .cls-2 {
        stroke: #fff;
      }

      .cls-3 {
        fill: #075372;
      }

      .cls-3, .cls-4, .cls-5, .cls-6 {
        stroke-width: 0px;
      }

      .cls-4 {
        fill: #fff;
      }

      .cls-5 {
        fill: #3e66b0;
      }

      .cls-6 {
        fill: #105275;
      }
    </style>
  </defs>
  <g id="Layer_10" data-name="Layer 10">
    <g>
      <path class="cls-3" d="m81.08,46.15c-.13-7.52-6.17-13-8.24-17.03-5.71-11.14-12.36-11.13-19.71-12.03-10.78-1.32-15.06,4.88-21.57,12.03-7.46,8.2-9.96,20.74-5.96,31.67,1.81,4.95,6.42,10.3,8.22,14.27,5.41,11.89,9.61,15.38,23.98,14.48,7.19-.45,9.6-3.45,13.33-12.29,3.64-8.63,10.26-12.78,9.93-31.09"/>
      <path class="cls-4" d="m71.85,77.05l-16.42-8.15.13-5.34s7.2-4.29,7.43-6.47c.49-4.68-3.96-3.81-3.96-3.81l-6.87,3.72-6.7-3.9s-1.1-.4-2.82.18c-1.21.41-2.64,2.51-1.31,4.37,4.19,5.88,10.77,6.42,7.56,6.77l.09,5.13-14.21,8.01"/>
      <path class="cls-2" d="m71.85,77.05l-16.42-8.15.13-5.34s7.2-4.29,7.43-6.47c.49-4.68-3.96-3.81-3.96-3.81l-6.87,3.72-6.7-3.9s-1.1-.4-2.82.18c-1.21.41-2.64,2.51-1.31,4.37,4.19,5.88,10.77,6.42,7.56,6.77l.09,5.13-14.21,8.01"/>
    </g>
    <polyline class="cls-6" points="36.81 81.44 52.05 73.96 68.88 81.44"/>
    <path class="cls-4" d="m76.75,42.24s-5.09-8.75-13.57-2.19,10.74,6.1,10.74,6.1l2.83-3.91Z"/>
    <line class="cls-2" x1="40.82" y1="54.16" x2="47.56" y2="39.21"/>
    <line class="cls-2" x1="63" y1="54.35" x2="56.98" y2="39.03"/>
    <g>
      <path class="cls-6" d="m47.36,10.61s-5.34.82-9.94,4.05c0,0-.36-2.17-5.49-5.15,0,0,.42-4.83,11.28-5.78l8.11,6.62-3.96.25Z"/>
      <path class="cls-6" d="m59.44,10.45s5.31.94,9.84,4.27c0,0,.42-2.16,5.62-5.03,0,0-.3-4.84-11.13-6.02l-8.28,6.44,3.95.34Z"/>
      <path class="cls-6" d="m45.8,1.51s8.97-3.4,15.34,0l-7.67,8.05-7.67-8.05Z"/>
      <path class="cls-6" d="m34.47,16.7s-.68-4.3-4.98-5.72c-4.29-1.42-9.05,5.72-9.05,5.72,0,0,.45,2.97,2.65,5.19.94.95,4.37,1.47,4.37,1.47,0,0,3.69-4.98,7.01-6.65"/>
      <path class="cls-6" d="m20.01,36.73s-7.94,19.06,3.31,38.05c-.22-.68,1.02,6.77-9.07,10.95-.45-.1,4.06-12.61,2.18-12.72-2.65-.15-9.22-15.77-6.84-25.15.03-.12-.18-.17-.16-.3.02-.16,8.33-12.51,10.58-10.83"/>
      <path class="cls-6" d="m86.6,36.73s7.94,19.06-3.31,38.05c.22-.68-1.02,6.77,9.07,10.95.45-.1-4.06-12.61-2.18-12.72,2.65-.15,9.22-15.77,6.84-25.15-.03-.12.18-.17.16-.3-.02-.16-8.33-12.51-10.58-10.83"/>
      <path class="cls-6" d="m13.95,75.51s-4.81,17.84-2.61,21.2c0,0-3.24,5.2-7.14,7.07,0,0,1.55-6.21,1.77-8.62,0,0-.99-11.01,2.34-19.38,0,0,3.26,2,5.64-.27"/>
      <path class="cls-6" d="m17.83,20.32s1.62,4.23,7.88,5.24l-5.28,9.08s-3.11-1.33-9.09,5.16c0,0,3.88-15.85,6.49-19.48"/>
      <path class="cls-6" d="m88.98,20.32s-1.62,4.23-7.88,5.24l5.28,9.08s3.11-1.33,9.09,5.16c0,0-3.88-15.85-6.49-19.48"/>
      <path class="cls-6" d="m71.81,16.7s.68-4.3,4.98-5.72c4.29-1.42,9.05,5.72,9.05,5.72,0,0-.45,2.97-2.65,5.19-.94.95-4.37,1.47-4.37,1.47,0,0-3.69-4.98-7.01-6.65"/>
      <path class="cls-6" d="m22.35,89.12s1.18,9.3-7.37,13.55c0,0,1.11-6.59,0-8.95-1.1-2.36.84-6.29.84-6.29,0,0,4.35-.41,6.52,1.7"/>
      <path class="cls-6" d="m26.05,79.08s-.75,4-5.85,5.78c0,0,7.35.21,5.85,17.81,0,0,14.39-5.91,12.56-11.79,0,0-8.47-3.57-12.56-11.79"/>
      <path class="cls-6" d="m80.33,79.4s.69,4.02,5.98,5.9c0,0-7.69.05-6.54,17.68,0,0-14.9-6.22-12.85-12.06,0,0,8.94-3.39,13.42-11.52"/>
      <path class="cls-6" d="m84.46,89.12s-1.18,9.3,7.37,13.55c0,0-1.11-6.59,0-8.95,1.1-2.36-.84-6.29-.84-6.29,0,0-4.35-.41-6.52,1.7"/>
      <path class="cls-6" d="m92.41,75.51s4.81,17.84,2.61,21.2c0,0,3.24,5.2,7.14,7.07,0,0-1.55-6.21-1.77-8.62,0,0,.99-11.01-2.34-19.38,0,0-3.26,2-5.64-.27"/>
      <path class="cls-6" d="m36.49,98.94s2.3,2.93,2.33,5.1c.03,2.17,9.37-6.06,8.63-9.33,0,0-3.53.66-6.87-2.3,0,0,1.38,1.8-4.09,6.53"/>
      <path class="cls-6" d="m67.88,99.01s-2.37,2.89-2.44,5.06c-.07,2.17-9.24-6.23-8.42-9.49,0,0,3.52.73,6.92-2.17,0,0-1.42,1.77,3.95,6.6"/>
      <path class="cls-6" d="m52.36,95.47c-.7.87-3.69,5.5-5.45,6.07-2.67.87,3.93,6.74,5.45,6.15,1.51-.59,5.75-2.08,6.05-6.09,0,0-5.75-3.21-6.05-6.13"/>
      <path class="cls-6" d="m6.15,52.03s1.64,14.76,3.62,16.33c1.98,1.57-4.17,7.32-6.68,7.81,0,0,2.7-5.89,1.11-9.16s1.96-14.97,1.96-14.97"/>
      <path class="cls-6" d="m100.38,52.03s-1.64,14.76-3.62,16.33c-1.98,1.57,4.17,7.32,6.68,7.81,0,0-2.7-5.89-1.11-9.16s-1.96-14.97-1.96-14.97"/>
      <path class="cls-6" d="m10.15,33.25s-.51,13.31-4.58,15.71c-4.06,2.4-4.74,5.66-4.74,5.66,0,0-2.18-6.2.48-8.32,2.66-2.12,8.83-13.06,8.83-13.06"/>
      <path class="cls-6" d="m97.08,33.25s.51,13.31,4.58,15.71c4.06,2.4,4.74,5.66,4.74,5.66,0,0,2.18-6.2-.48-8.32s-8.83-13.06-8.83-13.06"/>
      <path class="cls-6" d="m10.36,27.99s1.75-2.73,5.44-10.43L32.68,3.87S10.57,15.16,7.89,18.41c0,0-5.03,10.56-3.22,13.9,0,0,2.71-5.67,5.68-4.32"/>
    </g>
    <polygon class="cls-5" points="43.59 77.93 34.36 78.29 34.34 77.88 43.57 77.51 43.59 77.93"/>
    <polygon class="cls-4" points="46.11 71.31 34.27 77.7 36.75 81.83 47.54 75.99 46.11 71.31"/>
    <polygon class="cls-4" points="70.62 83.38 57.73 76.17 60.55 71.44 73.88 77.9 70.62 83.38"/>
    <g>
      <path class="cls-6" d="m94.14,26.68s-1.75-2.73-5.44-10.43l-16.88-13.69s22.11,11.29,24.79,14.54c0,0,5.03,10.56,3.22,13.9,0,0-2.71-5.67-5.68-4.32"/>
      <path class="cls-4" d="m51.24,72.85h0c-1.52,0-2.74-1.25-2.74-2.79v-6.59c0-1.1.64-2.1,1.63-2.55,1.81-.82,3.86.53,3.86,2.55v6.59c0,1.54-1.23,2.79-2.74,2.79"/>
      <path class="cls-4" d="m26.4,42.27s5.39-9.66,14.38-2.42c8.99,7.25-11.39,6.73-11.39,6.73l-3-4.32Z"/>
      <path class="cls-1" d="m26.4,42.27s5.39-9.66,14.38-2.42c8.99,7.25-11.39,6.73-11.39,6.73l-3-4.32Z"/>
    </g>
  </g>
</svg>